# WaveFront *.obj file (generated by Autodesk ATF)

mtllib crosshair.mtl

g Body1

v -10.000000 -2.000000 0.000000
v -2.000000 -2.000000 0.000000
v -2.000000 -2.000000 0.500000
v -10.000000 -2.000000 0.500000
v -10.000000 2.000000 0.000000
v -10.000000 2.000000 0.500000
v -2.000000 2.000000 0.000000
v -2.000000 2.000000 0.500000
v -2.000000 10.000000 0.000000
v -2.000000 10.000000 0.500000
v 2.000000 10.000000 0.000000
v 2.000000 10.000000 0.500000
v 2.000000 2.000000 0.000000
v 2.000000 2.000000 0.500000
v 10.000000 2.000000 0.000000
v 10.000000 2.000000 0.500000
v 10.000000 -2.000000 0.000000
v 10.000000 -2.000000 0.500000
v 2.000000 -2.000000 0.000000
v 2.000000 -2.000000 0.500000
v 2.000000 -10.000000 0.000000
v 2.000000 -10.000000 0.500000
v -2.000000 -10.000000 0.000000
v -2.000000 -10.000000 0.500000
v 0.000000 0.000000 0.500000
v 0.000000 0.000000 0.000000
vt 0.000000 0.000000 0.000000
vt 8.000000 0.000000 0.000000
vt 0.000000 0.500000 0.000000
vt 8.000000 0.500000 0.000000
vt 0.000000 0.000000 0.000000
vt 4.000000 0.000000 0.000000
vt 0.000000 0.500000 0.000000
vt 4.000000 0.500000 0.000000
vt 0.000000 0.000000 0.000000
vt 8.000000 0.000000 0.000000
vt 0.000000 0.500000 0.000000
vt 8.000000 0.500000 0.000000
vt 0.000000 0.000000 0.000000
vt 8.000000 0.000000 0.000000
vt 0.000000 0.500000 0.000000
vt 8.000000 0.500000 0.000000
vt 0.000000 0.000000 0.000000
vt 4.000000 0.000000 0.000000
vt 0.000000 0.500000 0.000000
vt 4.000000 0.500000 0.000000
vt 0.000000 0.000000 0.000000
vt 8.000000 0.000000 0.000000
vt 0.000000 0.500000 0.000000
vt 8.000000 0.500000 0.000000
vt 0.000000 0.000000 0.000000
vt 8.000000 0.000000 0.000000
vt 0.000000 0.500000 0.000000
vt 8.000000 0.500000 0.000000
vt 0.000000 0.000000 0.000000
vt 4.000000 0.000000 0.000000
vt 0.000000 0.500000 0.000000
vt 4.000000 0.500000 0.000000
vt 0.000000 0.000000 0.000000
vt 8.000000 0.000000 0.000000
vt 0.000000 0.500000 0.000000
vt 8.000000 0.500000 0.000000
vt 0.000000 0.000000 0.000000
vt 8.000000 0.000000 0.000000
vt 0.000000 0.500000 0.000000
vt 8.000000 0.500000 0.000000
vt 0.000000 0.000000 0.000000
vt 4.000000 0.000000 0.000000
vt 0.000000 0.500000 0.000000
vt 4.000000 0.500000 0.000000
vt 0.000000 0.000000 0.000000
vt 8.000000 0.000000 0.000000
vt 0.000000 0.500000 0.000000
vt 8.000000 0.500000 0.000000
vt -2.000000 -10.000000 0.000000
vt 2.000000 -10.000000 0.000000
vt -2.000000 -2.000000 0.000000
vt 2.000000 -2.000000 0.000000
vt 0.000000 0.000000 0.000000
vt 2.000000 2.000000 0.000000
vt -2.000000 2.000000 0.000000
vt -2.000000 10.000000 0.000000
vt 2.000000 10.000000 0.000000
vt 10.000000 -2.000000 0.000000
vt 10.000000 2.000000 0.000000
vt -10.000000 2.000000 0.000000
vt -10.000000 -2.000000 0.000000
vt -2.000000 -10.000000 0.000000
vt 2.000000 -10.000000 0.000000
vt -2.000000 -2.000000 0.000000
vt 2.000000 -2.000000 0.000000
vt 0.000000 0.000000 0.000000
vt 2.000000 2.000000 0.000000
vt -2.000000 2.000000 0.000000
vt -2.000000 10.000000 0.000000
vt 2.000000 10.000000 0.000000
vt 10.000000 -2.000000 0.000000
vt 10.000000 2.000000 0.000000
vt -10.000000 2.000000 0.000000
vt -10.000000 -2.000000 0.000000
vn 0.000000 -1.000000 0.000000
vn 0.000000 -1.000000 0.000000
vn 0.000000 -1.000000 0.000000
vn 0.000000 -1.000000 0.000000
vn -1.000000 0.000000 0.000000
vn -1.000000 0.000000 0.000000
vn -1.000000 0.000000 0.000000
vn -1.000000 0.000000 0.000000
vn 0.000000 1.000000 -0.000000
vn 0.000000 1.000000 -0.000000
vn 0.000000 1.000000 -0.000000
vn 0.000000 1.000000 -0.000000
vn -1.000000 0.000000 0.000000
vn -1.000000 0.000000 0.000000
vn -1.000000 0.000000 0.000000
vn -1.000000 0.000000 0.000000
vn 0.000000 1.000000 -0.000000
vn 0.000000 1.000000 -0.000000
vn 0.000000 1.000000 -0.000000
vn 0.000000 1.000000 -0.000000
vn 1.000000 0.000000 0.000000
vn 1.000000 0.000000 0.000000
vn 1.000000 0.000000 0.000000
vn 1.000000 0.000000 0.000000
vn 0.000000 1.000000 -0.000000
vn 0.000000 1.000000 -0.000000
vn 0.000000 1.000000 -0.000000
vn 0.000000 1.000000 -0.000000
vn 1.000000 0.000000 0.000000
vn 1.000000 0.000000 0.000000
vn 1.000000 0.000000 0.000000
vn 1.000000 0.000000 0.000000
vn 0.000000 -1.000000 0.000000
vn 0.000000 -1.000000 0.000000
vn 0.000000 -1.000000 0.000000
vn 0.000000 -1.000000 0.000000
vn 1.000000 0.000000 0.000000
vn 1.000000 0.000000 0.000000
vn 1.000000 0.000000 0.000000
vn 1.000000 0.000000 0.000000
vn 0.000000 -1.000000 0.000000
vn 0.000000 -1.000000 0.000000
vn 0.000000 -1.000000 0.000000
vn 0.000000 -1.000000 0.000000
vn -1.000000 0.000000 0.000000
vn -1.000000 0.000000 0.000000
vn -1.000000 0.000000 0.000000
vn -1.000000 0.000000 0.000000
vn 0.000000 0.000000 1.000000
vn 0.000000 0.000000 1.000000
vn 0.000000 0.000000 1.000000
vn 0.000000 0.000000 1.000000
vn 0.000000 0.000000 1.000000
vn 0.000000 0.000000 1.000000
vn 0.000000 0.000000 1.000000
vn 0.000000 0.000000 1.000000
vn 0.000000 0.000000 1.000000
vn 0.000000 0.000000 1.000000
vn 0.000000 0.000000 1.000000
vn 0.000000 0.000000 1.000000
vn 0.000000 0.000000 1.000000
vn -0.000000 -0.000000 -1.000000
vn -0.000000 -0.000000 -1.000000
vn -0.000000 -0.000000 -1.000000
vn -0.000000 -0.000000 -1.000000
vn -0.000000 -0.000000 -1.000000
vn -0.000000 -0.000000 -1.000000
vn -0.000000 -0.000000 -1.000000
vn -0.000000 -0.000000 -1.000000
vn -0.000000 -0.000000 -1.000000
vn -0.000000 -0.000000 -1.000000
vn -0.000000 -0.000000 -1.000000
vn -0.000000 -0.000000 -1.000000
vn -0.000000 -0.000000 -1.000000
usemtl Steel_-_Satin
f 1/1/1 2/2/2 4/3/3
f 4/3/3 2/2/2 3/4/4
f 5/5/5 1/6/6 6/7/7
f 6/7/7 1/6/6 4/8/8
f 7/9/9 5/10/10 8/11/11
f 8/11/11 5/10/10 6/12/12
f 9/13/13 7/14/14 10/15/15
f 10/15/15 7/14/14 8/16/16
f 11/17/17 9/18/18 12/19/19
f 12/19/19 9/18/18 10/20/20
f 13/21/21 11/22/22 14/23/23
f 14/23/23 11/22/22 12/24/24
f 15/25/25 13/26/26 16/27/27
f 16/27/27 13/26/26 14/28/28
f 17/29/29 15/30/30 18/31/31
f 18/31/31 15/30/30 16/32/32
f 19/33/33 17/34/34 20/35/35
f 20/35/35 17/34/34 18/36/36
f 21/37/37 19/38/38 22/39/39
f 22/39/39 19/38/38 20/40/40
f 23/41/41 21/42/42 24/43/43
f 24/43/43 21/42/42 22/44/44
f 2/45/45 23/46/46 3/47/47
f 3/47/47 23/46/46 24/48/48
f 24/49/49 22/50/50 3/51/51
f 3/51/51 22/50/50 20/52/52
f 3/51/51 20/52/52 25/53/53
f 25/53/53 20/52/52 14/54/54
f 25/53/53 14/54/54 8/55/55
f 8/55/55 14/54/54 10/56/56
f 10/56/56 14/54/54 12/57/57
f 20/52/52 18/58/58 14/54/54
f 14/54/54 18/58/58 16/59/59
f 25/53/53 8/55/55 3/51/51
f 3/51/51 8/55/55 6/60/60
f 3/51/51 6/60/60 4/61/61
f 21/62/62 23/63/63 19/64/64
f 19/64/64 23/63/63 2/65/65
f 19/64/64 2/65/65 26/66/66
f 26/66/66 2/65/65 7/67/67
f 26/66/66 7/67/67 13/68/68
f 13/68/68 7/67/67 11/69/69
f 11/69/69 7/67/67 9/70/70
f 2/65/65 1/71/71 7/67/67
f 7/67/67 1/71/71 5/72/72
f 26/66/66 13/68/68 19/64/64
f 19/64/64 13/68/68 15/73/73
f 19/64/64 15/73/73 17/74/74
# 26 vertices
# 74 texture params
# 74 normals
# 48 facets

# 1 groups
