# WaveFront *.obj file (generated by Autodesk ATF)

mtllib minecraft_char.mtl

g Body1

v -4.000000 -2.000000 24.000000
v 4.000000 -2.000000 24.000000
v 4.000000 -4.000000 24.000000
v -4.000000 -4.000000 24.000000
v 4.000000 2.000000 24.000000
v -4.000000 2.000000 24.000000
v -4.000000 4.000000 24.000000
v 4.000000 4.000000 24.000000
v -4.000000 4.000000 32.000000
v 4.000000 4.000000 32.000000
v 4.000000 -4.000000 32.000000
v -4.000000 -4.000000 32.000000
v -8.000000 2.000000 24.000000
v -8.000000 -2.000000 24.000000
v 8.000000 -2.000000 24.000000
v 8.000000 2.000000 24.000000
v 4.000000 -2.000000 12.000000
v 4.000000 2.000000 12.000000
v 8.000000 2.000000 12.000000
v 8.000000 -2.000000 12.000000
v -4.000000 2.000000 12.000000
v -4.000000 -2.000000 12.000000
v -8.000000 -2.000000 12.000000
v -8.000000 2.000000 12.000000
v -8.000000 -2.000000 18.000000
v -8.000000 2.000000 18.000000
v 8.000000 2.000000 18.000000
v 8.000000 -2.000000 18.000000
v 4.000000 2.000000 0.000000
v -4.000000 2.000000 0.000000
v -4.000000 2.000000 6.000000
v 4.000000 2.000000 6.000000
v 0.000000 2.000000 16.000000
v 0.000000 2.000000 8.000000
v 4.000000 -2.000000 0.000000
v 4.000000 -2.000000 6.000000
v -4.000000 -2.000000 0.000000
v -4.000000 -2.000000 6.000000
v 0.000000 -2.000000 16.000000
v 0.000000 -2.000000 8.000000
vt -4.000000 2.000000 0.000000
vt 4.000000 2.000000 0.000000
vt -4.000000 4.000000 0.000000
vt 4.000000 4.000000 0.000000
vt 4.000000 -2.000000 0.000000
vt -4.000000 -2.000000 0.000000
vt 4.000000 -4.000000 0.000000
vt -4.000000 -4.000000 0.000000
vt 0.000000 0.000000 0.000000
vt 8.000000 0.000000 0.000000
vt 0.000000 8.000000 0.000000
vt 8.000000 8.000000 0.000000
vt 0.000000 0.000000 0.000000
vt 2.000000 0.000000 0.000000
vt 0.000000 8.000000 0.000000
vt 6.000000 0.000000 0.000000
vt 8.000000 8.000000 0.000000
vt 8.000000 0.000000 0.000000
vt 0.000000 0.000000 0.000000
vt 8.000000 0.000000 0.000000
vt 0.000000 8.000000 0.000000
vt 8.000000 8.000000 0.000000
vt 0.000000 0.000000 0.000000
vt 2.000000 0.000000 0.000000
vt 0.000000 8.000000 0.000000
vt 6.000000 0.000000 0.000000
vt 8.000000 8.000000 0.000000
vt 8.000000 0.000000 0.000000
vt -4.000000 -4.000000 0.000000
vt 4.000000 -4.000000 0.000000
vt -4.000000 4.000000 0.000000
vt 4.000000 4.000000 0.000000
vt -4.000000 2.000000 0.000000
vt -8.000000 2.000000 0.000000
vt -4.000000 -2.000000 0.000000
vt -8.000000 -2.000000 0.000000
vt 4.000000 -2.000000 0.000000
vt 8.000000 -2.000000 0.000000
vt 4.000000 2.000000 0.000000
vt 8.000000 2.000000 0.000000
vt 4.000000 -2.000000 0.000000
vt 8.000000 -2.000000 0.000000
vt 4.000000 2.000000 0.000000
vt 8.000000 2.000000 0.000000
vt -4.000000 2.000000 0.000000
vt -8.000000 2.000000 0.000000
vt -4.000000 -2.000000 0.000000
vt -8.000000 -2.000000 0.000000
vt -0.000000 0.000000 0.000000
vt 4.000000 0.000000 0.000000
vt -0.000000 6.000000 0.000000
vt 4.000000 6.000000 0.000000
vt -0.000000 12.000000 0.000000
vt 4.000000 12.000000 0.000000
vt 0.000000 0.000000 0.000000
vt 4.000000 0.000000 0.000000
vt 0.000000 6.000000 0.000000
vt 4.000000 6.000000 0.000000
vt 0.000000 12.000000 0.000000
vt 4.000000 12.000000 0.000000
vt 0.000000 0.000000 0.000000
vt 8.000000 0.000000 0.000000
vt 0.000000 6.000000 0.000000
vt 4.000000 8.000000 0.000000
vt 0.000000 12.000000 0.000000
vt 4.000000 16.000000 0.000000
vt -4.000000 18.000000 0.000000
vt 0.000000 24.000000 0.000000
vt -4.000000 24.000000 0.000000
vt 8.000000 6.000000 0.000000
vt 8.000000 12.000000 0.000000
vt 12.000000 18.000000 0.000000
vt 8.000000 24.000000 0.000000
vt 12.000000 24.000000 0.000000
vt 12.000000 12.000000 0.000000
vt -4.000000 12.000000 0.000000
vt 0.000000 0.000000 0.000000
vt 4.000000 0.000000 0.000000
vt 0.000000 6.000000 0.000000
vt 4.000000 6.000000 0.000000
vt 0.000000 12.000000 0.000000
vt 4.000000 12.000000 0.000000
vt 0.000000 0.000000 0.000000
vt 8.000000 0.000000 0.000000
vt 0.000000 6.000000 0.000000
vt 4.000000 8.000000 0.000000
vt 0.000000 12.000000 0.000000
vt 4.000000 16.000000 0.000000
vt -4.000000 18.000000 0.000000
vt 0.000000 24.000000 0.000000
vt -4.000000 24.000000 0.000000
vt 8.000000 6.000000 0.000000
vt 8.000000 12.000000 0.000000
vt 12.000000 18.000000 0.000000
vt 8.000000 24.000000 0.000000
vt 12.000000 24.000000 0.000000
vt 12.000000 12.000000 0.000000
vt -4.000000 12.000000 0.000000
vt 0.000000 0.000000 0.000000
vt 4.000000 0.000000 0.000000
vt 0.000000 6.000000 0.000000
vt 4.000000 6.000000 0.000000
vt 0.000000 12.000000 0.000000
vt 4.000000 12.000000 0.000000
vt 4.000000 2.000000 0.000000
vt -4.000000 2.000000 0.000000
vt 4.000000 -2.000000 0.000000
vt -4.000000 -2.000000 0.000000
vn -0.000000 -0.000000 -1.000000
vn -0.000000 -0.000000 -1.000000
vn -0.000000 -0.000000 -1.000000
vn -0.000000 -0.000000 -1.000000
vn -0.000000 -0.000000 -1.000000
vn -0.000000 -0.000000 -1.000000
vn -0.000000 -0.000000 -1.000000
vn -0.000000 -0.000000 -1.000000
vn 0.000000 1.000000 -0.000000
vn 0.000000 1.000000 -0.000000
vn 0.000000 1.000000 -0.000000
vn 0.000000 1.000000 -0.000000
vn 1.000000 0.000000 0.000000
vn 1.000000 0.000000 0.000000
vn 1.000000 0.000000 0.000000
vn 1.000000 0.000000 0.000000
vn 1.000000 0.000000 0.000000
vn 1.000000 0.000000 0.000000
vn 0.000000 -1.000000 0.000000
vn 0.000000 -1.000000 0.000000
vn 0.000000 -1.000000 0.000000
vn 0.000000 -1.000000 0.000000
vn -1.000000 0.000000 0.000000
vn -1.000000 0.000000 0.000000
vn -1.000000 0.000000 0.000000
vn -1.000000 0.000000 0.000000
vn -1.000000 0.000000 0.000000
vn -1.000000 0.000000 0.000000
vn 0.000000 0.000000 1.000000
vn 0.000000 0.000000 1.000000
vn 0.000000 0.000000 1.000000
vn 0.000000 0.000000 1.000000
vn 0.000000 0.000000 1.000000
vn 0.000000 0.000000 1.000000
vn 0.000000 0.000000 1.000000
vn 0.000000 0.000000 1.000000
vn 0.000000 0.000000 1.000000
vn 0.000000 0.000000 1.000000
vn 0.000000 0.000000 1.000000
vn 0.000000 0.000000 1.000000
vn -0.000000 -0.000000 -1.000000
vn -0.000000 -0.000000 -1.000000
vn -0.000000 -0.000000 -1.000000
vn -0.000000 -0.000000 -1.000000
vn -0.000000 -0.000000 -1.000000
vn -0.000000 -0.000000 -1.000000
vn -0.000000 -0.000000 -1.000000
vn -0.000000 -0.000000 -1.000000
vn -1.000000 0.000000 0.000000
vn -1.000000 0.000000 0.000000
vn -1.000000 0.000000 0.000000
vn -1.000000 0.000000 0.000000
vn -1.000000 0.000000 0.000000
vn -1.000000 0.000000 0.000000
vn 1.000000 0.000000 -0.000000
vn 1.000000 0.000000 -0.000000
vn 1.000000 0.000000 -0.000000
vn 1.000000 0.000000 -0.000000
vn 1.000000 0.000000 -0.000000
vn 1.000000 0.000000 -0.000000
vn 0.000000 1.000000 -0.000000
vn 0.000000 1.000000 -0.000000
vn 0.000000 1.000000 -0.000000
vn 0.000000 1.000000 -0.000000
vn 0.000000 1.000000 -0.000000
vn 0.000000 1.000000 -0.000000
vn 0.000000 1.000000 -0.000000
vn 0.000000 1.000000 -0.000000
vn 0.000000 1.000000 -0.000000
vn 0.000000 1.000000 -0.000000
vn 0.000000 1.000000 -0.000000
vn 0.000000 1.000000 -0.000000
vn 0.000000 1.000000 -0.000000
vn 0.000000 1.000000 -0.000000
vn 0.000000 1.000000 -0.000000
vn 0.000000 1.000000 -0.000000
vn 1.000000 0.000000 0.000000
vn 1.000000 0.000000 0.000000
vn 1.000000 0.000000 0.000000
vn 1.000000 0.000000 0.000000
vn 1.000000 0.000000 0.000000
vn 1.000000 0.000000 0.000000
vn 0.000000 -1.000000 0.000000
vn 0.000000 -1.000000 0.000000
vn 0.000000 -1.000000 0.000000
vn 0.000000 -1.000000 0.000000
vn 0.000000 -1.000000 0.000000
vn 0.000000 -1.000000 0.000000
vn 0.000000 -1.000000 0.000000
vn 0.000000 -1.000000 0.000000
vn 0.000000 -1.000000 0.000000
vn 0.000000 -1.000000 0.000000
vn 0.000000 -1.000000 0.000000
vn 0.000000 -1.000000 0.000000
vn 0.000000 -1.000000 0.000000
vn 0.000000 -1.000000 0.000000
vn 0.000000 -1.000000 0.000000
vn 0.000000 -1.000000 0.000000
vn -1.000000 0.000000 0.000000
vn -1.000000 0.000000 0.000000
vn -1.000000 0.000000 0.000000
vn -1.000000 0.000000 0.000000
vn -1.000000 0.000000 0.000000
vn -1.000000 0.000000 0.000000
vn -0.000000 -0.000000 -1.000000
vn -0.000000 -0.000000 -1.000000
vn -0.000000 -0.000000 -1.000000
vn -0.000000 -0.000000 -1.000000
usemtl Steel_-_Satin
f 1/1/1 2/2/2 4/3/3
f 4/3/3 2/2/2 3/4/4
f 5/5/5 6/6/6 8/7/7
f 8/7/7 6/6/6 7/8/8
f 8/9/9 7/10/10 10/11/11
f 10/11/11 7/10/10 9/12/12
f 3/13/13 2/14/14 11/15/15
f 11/15/15 2/14/14 5/16/16
f 11/15/15 5/16/16 10/17/17
f 10/17/17 5/16/16 8/18/18
f 4/19/19 3/20/20 12/21/21
f 12/21/21 3/20/20 11/22/22
f 7/23/23 6/24/24 9/25/25
f 9/25/25 6/24/24 1/26/26
f 9/25/25 1/26/26 12/27/27
f 12/27/27 1/26/26 4/28/28
f 12/29/29 11/30/30 9/31/31
f 9/31/31 11/30/30 10/32/32
f 6/33/33 13/34/34 1/35/35
f 1/35/35 13/34/34 14/36/36
f 2/37/37 15/38/38 5/39/39
f 5/39/39 15/38/38 16/40/40
f 18/41/41 19/42/42 17/43/43
f 17/43/43 19/42/42 20/44/44
f 22/45/45 23/46/46 21/47/47
f 21/47/47 23/46/46 24/48/48
f 24/49/49 23/50/50 26/51/51
f 26/51/51 23/50/50 25/52/52
f 26/51/51 25/52/52 13/53/53
f 13/53/53 25/52/52 14/54/54
f 20/55/55 19/56/56 28/57/57
f 28/57/57 19/56/56 27/58/58
f 28/57/57 27/58/58 15/59/59
f 15/59/59 27/58/58 16/60/60
f 29/61/61 30/62/62 32/63/63
f 32/63/63 30/62/62 34/64/64
f 32/63/63 34/64/64 18/65/65
f 18/65/65 34/64/64 33/66/66
f 18/65/65 33/66/66 27/67/67
f 27/67/67 33/66/66 5/68/68
f 27/67/67 5/68/68 16/69/69
f 30/62/62 31/70/70 34/64/64
f 34/64/64 31/70/70 21/71/71
f 34/64/64 21/71/71 33/66/66
f 33/66/66 21/71/71 26/72/72
f 33/66/66 26/72/72 6/73/73
f 6/73/73 26/72/72 13/74/74
f 21/71/71 24/75/75 26/72/72
f 6/73/73 5/68/68 33/66/66
f 27/67/67 19/76/76 18/65/65
f 35/77/77 29/78/78 36/79/79
f 36/79/79 29/78/78 32/80/80
f 36/79/79 32/80/80 17/81/81
f 17/81/81 32/80/80 18/82/82
f 37/83/83 35/84/84 38/85/85
f 38/85/85 35/84/84 40/86/86
f 38/85/85 40/86/86 22/87/87
f 22/87/87 40/86/86 39/88/88
f 22/87/87 39/88/88 25/89/89
f 25/89/89 39/88/88 1/90/90
f 25/89/89 1/90/90 14/91/91
f 35/84/84 36/92/92 40/86/86
f 40/86/86 36/92/92 17/93/93
f 40/86/86 17/93/93 39/88/88
f 39/88/88 17/93/93 28/94/94
f 39/88/88 28/94/94 2/95/95
f 2/95/95 28/94/94 15/96/96
f 17/93/93 20/97/97 28/94/94
f 2/95/95 1/90/90 39/88/88
f 25/89/89 23/98/98 22/87/87
f 30/99/99 37/100/100 31/101/101
f 31/101/101 37/100/100 38/102/102
f 31/101/101 38/102/102 21/103/103
f 21/103/103 38/102/102 22/104/104
f 30/105/105 29/106/106 37/107/107
f 37/107/107 29/106/106 35/108/108
# 40 vertices
# 108 texture params
# 108 normals
# 76 facets

# 1 groups
